# xmcd
#
# Track frame offsets:
#	150
#	19411
#	33536
#	52162
#	65236
#	76686
#	89954
#	109664
#	125753
#	143927
#	163260
#	174481
#	185455
#	199807
#	226595
#	240529
#	259563
#
# Disc length: 3685
#
# Revision: 1
# Processed by: cddbd v1.5.1PL0 Copyright (c) Steve Scherf et al.
# Submitted via: EZCDDA 4.3.3.2
# Normalized: r0:TDELIM( - )
#
DISCID=f60e6311
DTITLE=Dixie Chicks - Gallery Disc 2
DYEAR=1900
DGENRE=
TTITLE0=Groobees - Wide Open Spaces
TTITLE1=Dobie Gray - Loving Arms
TTITLE2=Randy Foster - Never Say Die
TTITLE3=JLW - Tonight The Heartaches On Me
TTITLE4=JD Souther - I'll Take Care Of You
TTITLE5=Maria Mackee - Am I The Only One Who's Ever Felt This Way
TTITLE6=Bonnie Raitt - Give It Up Or Let Me Go
TTITLE7=Suzy Boguss - Cold Day In July
TTITLE8=Joy Lynn White - Cold Day In July
TTITLE9=Sons Of The Desert - Goodbye Earl
TTITLE10=The Ranch - Some Days You Gotta Dance
TTITLE11=Buddy Miller - Hole In My Head
TTITLE12=Patty Griffin - Let Him Fly
TTITLE13=Jay Joyce Remix - There's Your Trouble
TTITLE14=Dixie Dicks - My Name Is Earl
TTITLE15=Paul Craft - Hey Girls, This Is Earl, I Didn't Die
TTITLE16=Cledus T. Judd - Nascar Races
EXTD=
EXTT0=
EXTT1=
EXTT2=
EXTT3=
EXTT4=
EXTT5=
EXTT6=
EXTT7=
EXTT8=
EXTT9=
EXTT10=
EXTT11=
EXTT12=
EXTT13=
EXTT14=
EXTT15=
EXTT16=
PLAYORDER=
